<svg width="75" height="24" viewBox="0 0 75 24" fill="none" xmlns="http://www.w3.org/2000/svg">
<path d="M18.4413 23.6915H13.7726V14.0668H4.66869V23.6915H0V1.23393H4.66869V10.3342H13.7726V1.23393H18.4413V23.6915Z" fill="#2B2A35"/>
<path d="M28.7137 24C26.2445 24 24.2318 23.2494 22.6755 21.7481C21.1297 20.2468 20.3568 18.2468 20.3568 15.7481V15.3162C20.3568 13.6401 20.6836 12.144 21.3372 10.8278C21.9908 9.50129 22.9142 8.48329 24.1073 7.77378C25.3108 7.05398 26.6802 6.69409 28.2157 6.69409C30.5189 6.69409 32.3294 7.41388 33.647 8.85347C34.975 10.2931 35.6389 12.3342 35.6389 14.9769V16.7969H24.9165C25.0618 17.8869 25.4975 18.7609 26.2237 19.419C26.9604 20.0771 27.8889 20.4062 29.0094 20.4062C30.742 20.4062 32.0959 19.7841 33.0712 18.5398L35.281 20.9923C34.6066 21.9383 33.6937 22.6787 32.542 23.2134C31.3904 23.7378 30.1143 24 28.7137 24ZM28.2002 10.3033C27.3079 10.3033 26.5817 10.6015 26.0214 11.1979C25.4716 11.7943 25.1188 12.6478 24.9632 13.7584H31.2192V13.4036C31.1985 12.4165 30.9288 11.6555 30.41 11.1208C29.8913 10.5758 29.1546 10.3033 28.2002 10.3033Z" fill="#2B2A35"/>
<path d="M41.6784 23.6915H37.1653V0H41.6784V23.6915Z" fill="#2B2A35"/>
<path d="M48.8694 23.6915H44.3563V0H48.8694V23.6915Z" fill="#2B2A35"/>
<path d="M50.6136 15.1928C50.6136 13.5373 50.9352 12.0617 51.5785 10.7661C52.2217 9.47044 53.1451 8.46787 54.3486 7.75835C55.5624 7.04884 56.9682 6.69409 58.566 6.69409C60.8381 6.69409 62.69 7.38303 64.1217 8.76093C65.5638 10.1388 66.3679 12.0103 66.5339 14.3753L66.565 15.5167C66.565 18.0771 65.8439 20.1337 64.4018 21.6864C62.9597 23.2288 61.0248 24 58.5971 24C56.1694 24 54.2293 23.2288 52.7768 21.6864C51.3347 20.144 50.6136 18.0463 50.6136 15.3933V15.1928ZM55.1111 15.5167C55.1111 17.1003 55.412 18.3136 56.0138 19.1568C56.6155 19.9897 57.4766 20.4062 58.5971 20.4062C59.6865 20.4062 60.5372 19.9949 61.1493 19.1722C61.7614 18.3393 62.0675 17.0129 62.0675 15.1928C62.0675 13.6401 61.7614 12.437 61.1493 11.5835C60.5372 10.7301 59.6761 10.3033 58.566 10.3033C57.4662 10.3033 56.6155 10.7301 56.0138 11.5835C55.412 12.4267 55.1111 13.7378 55.1111 15.5167Z" fill="#2B2A35"/>
<path d="M69.688 21.0763C69.688 20.29 69.9371 19.6518 70.4352 19.1618C70.9442 18.6718 71.5778 18.4268 72.3358 18.4268C73.1047 18.4268 73.7383 18.6718 74.2364 19.1618C74.7454 19.6518 74.9999 20.29 74.9999 21.0763C74.9999 21.8512 74.7508 22.4836 74.2527 22.9736C73.7545 23.4523 73.1156 23.6916 72.3358 23.6916C71.5669 23.6916 70.9334 23.4523 70.4352 22.9736C69.9371 22.4836 69.688 21.8512 69.688 21.0763Z" fill="#334AC0"/>
</svg>
